REM DIRINDEX 1\2\4\18,1\2\4\19,1\2\5\20,1\2\5\21,1\2\6\22,1\2\7\23,1\2\8\24,1\2\8\25,1\2\9\26,1\2\10\27,1\3\11\28,1\3\11\29,1\3\11\30,1\3\11\31,1\3\12\32,1\3\12\33,1\3\12\34,1\3\12\35,1\3\13\36,1\3\13\37,1\3\14\38,1\3\14\39,1\3\15\40,1\3\15\41,1\3\15\42,1\3\16\43,1\3\16\44,1\3\17\45,1\3\17\46
REM DIRNAME folder01,folder02,folder03,folder04,folder05,folder06,folder07,folder08,folder09,folder10,folder11,folder12,folder13,folder14,folder15,folder16,folder17,folder18,folder19,folder20,folder21,folder22,folder23,folder24,folder25,folder26,folder27,folder28,folder29,folder30,folder31,folder32,folder33,folder34,folder35,folder36,folder37,folder38,folder39,folder40,folder41,folder42,folder43,folder44,folder45,folder46
TITLE ""
FILE "09.mp3" MP3
  TRACK 01 AUDIO
    TITLE "0:"
    INDEX 01 00:00:00
  TRACK 02 AUDIO
    TITLE "18:cjc024_1433"
    INDEX 01 00:00:13
  TRACK 03 AUDIO
    TITLE "0:"
    INDEX 01 00:01:28
  TRACK 04 AUDIO
    TITLE "19:cjc024_1434"
    INDEX 01 00:01:54
  TRACK 05 AUDIO
    TITLE "0:"
    INDEX 01 00:03:23
  TRACK 06 AUDIO
    TITLE "18:cjc024_1435"
    INDEX 01 00:04:25
  TRACK 07 AUDIO
    TITLE "0:"
    INDEX 01 00:05:36
  TRACK 08 AUDIO
    TITLE "19:cjc024_1436"
    INDEX 01 00:05:65
  TRACK 09 AUDIO
    TITLE "0:"
    INDEX 01 00:07:31
  TRACK 10 AUDIO
    TITLE "18:cjc024_1437"
    INDEX 01 00:08:40
  TRACK 11 AUDIO
    TITLE "0:"
    INDEX 01 00:09:51
  TRACK 12 AUDIO
    TITLE "19:cjc024_1438"
    INDEX 01 00:10:06
  TRACK 13 AUDIO
    TITLE "0:"
    INDEX 01 00:12:09
  TRACK 14 AUDIO
    TITLE "18:cjc024_1439"
    INDEX 01 00:13:12
  TRACK 15 AUDIO
    TITLE "0:"
    INDEX 01 00:14:29
  TRACK 16 AUDIO
    TITLE "19:cjc024_1440"
    INDEX 01 00:14:51
  TRACK 17 AUDIO
    TITLE "0:"
    INDEX 01 00:16:67
  TRACK 18 AUDIO
    TITLE "18:cjc024_1441"
    INDEX 01 00:17:65
  TRACK 19 AUDIO
    TITLE "0:"
    INDEX 01 00:18:62
  TRACK 20 AUDIO
    TITLE "19:cjc024_1442"
    INDEX 01 00:19:11
  TRACK 21 AUDIO
    TITLE "0:"
    INDEX 01 00:21:25
  TRACK 22 AUDIO
    TITLE "18:cjc024_1443"
    INDEX 01 00:22:23
  TRACK 23 AUDIO
    TITLE "0:"
    INDEX 01 00:23:22
  TRACK 24 AUDIO
    TITLE "19:cjc024_1444"
    INDEX 01 00:23:50
  TRACK 25 AUDIO
    TITLE "0:"
    INDEX 01 00:27:02
  TRACK 26 AUDIO
    TITLE "18:cjc024_1445"
    INDEX 01 00:28:06
  TRACK 27 AUDIO
    TITLE "0:"
    INDEX 01 00:29:17
  TRACK 28 AUDIO
    TITLE "19:cjc024_1446"
    INDEX 01 00:29:52
  TRACK 29 AUDIO
    TITLE "0:"
    INDEX 01 00:32:33
  TRACK 30 AUDIO
    TITLE "18:cjc024_1447"
    INDEX 01 00:33:32
  TRACK 31 AUDIO
    TITLE "0:"
    INDEX 01 00:34:49
  TRACK 32 AUDIO
    TITLE "19:cjc024_1448"
    INDEX 01 00:35:08
  TRACK 33 AUDIO
    TITLE "0:"
    INDEX 01 00:37:57
  TRACK 34 AUDIO
    TITLE "18:cjc024_1449"
    INDEX 01 00:38:61
  TRACK 35 AUDIO
    TITLE "0:"
    INDEX 01 00:39:56
  TRACK 36 AUDIO
    TITLE "19:cjc024_1450"
    INDEX 01 00:40:07
  TRACK 37 AUDIO
    TITLE "0:"
    INDEX 01 00:42:23
  TRACK 38 AUDIO
    TITLE "18:cjc024_1451"
    INDEX 01 00:43:23
  TRACK 39 AUDIO
    TITLE "0:"
    INDEX 01 00:44:48
  TRACK 40 AUDIO
    TITLE "19:cjc024_1452"
    INDEX 01 00:44:73
  TRACK 41 AUDIO
    TITLE "0:"
    INDEX 01 00:47:07
  TRACK 42 AUDIO
    TITLE "18:cjc024_1453"
    INDEX 01 00:48:08
  TRACK 43 AUDIO
    TITLE "0:"
    INDEX 01 00:49:14
  TRACK 44 AUDIO
    TITLE "19:cjc024_1454"
    INDEX 01 00:49:41
  TRACK 45 AUDIO
    TITLE "0:"
    INDEX 01 00:51:48
  TRACK 46 AUDIO
    TITLE "18:cjc024_1455"
    INDEX 01 00:52:51
  TRACK 47 AUDIO
    TITLE "0:"
    INDEX 01 00:53:53
  TRACK 48 AUDIO
    TITLE "19:cjc024_1456"
    INDEX 01 00:54:03
  TRACK 49 AUDIO
    TITLE "0:"
    INDEX 01 00:55:65
  TRACK 50 AUDIO
    TITLE "18:cjc024_1457"
    INDEX 01 00:56:65
  TRACK 51 AUDIO
    TITLE "0:"
    INDEX 01 00:57:64
  TRACK 52 AUDIO
    TITLE "19:cjc024_1458"
    INDEX 01 00:58:15
  TRACK 53 AUDIO
    TITLE "0:"
    INDEX 01 00:59:57
  TRACK 54 AUDIO
    TITLE "18:cjc024_1459"
    INDEX 01 01:00:59
  TRACK 55 AUDIO
    TITLE "0:"
    INDEX 01 01:02:01
  TRACK 56 AUDIO
    TITLE "19:cjc024_1460"
    INDEX 01 01:02:30
  TRACK 57 AUDIO
    TITLE "0:"
    INDEX 01 01:04:15
  TRACK 58 AUDIO
    TITLE "18:cjc024_1461"
    INDEX 01 01:05:15
  TRACK 59 AUDIO
    TITLE "0:"
    INDEX 01 01:06:30
  TRACK 60 AUDIO
    TITLE "19:cjc024_1462"
    INDEX 01 01:06:55
  TRACK 61 AUDIO
    TITLE "0:"
    INDEX 01 01:08:38
  TRACK 62 AUDIO
    TITLE "18:cjc024_1463"
    INDEX 01 01:09:38
  TRACK 63 AUDIO
    TITLE "0:"
    INDEX 01 01:10:39
  TRACK 64 AUDIO
    TITLE "19:cjc024_1464"
    INDEX 01 01:10:65
  TRACK 65 AUDIO
    TITLE "0:"
    INDEX 01 01:12:68
  TRACK 66 AUDIO
    TITLE "18:cjc024_1465"
    INDEX 01 01:13:67
  TRACK 67 AUDIO
    TITLE "0:"
    INDEX 01 01:15:11
  TRACK 68 AUDIO
    TITLE "19:cjc024_1466"
    INDEX 01 01:15:39
  TRACK 69 AUDIO
    TITLE "0:"
    INDEX 01 01:17:32
  TRACK 70 AUDIO
    TITLE "18:cjc024_1467"
    INDEX 01 01:18:31
  TRACK 71 AUDIO
    TITLE "0:"
    INDEX 01 01:19:46
  TRACK 72 AUDIO
    TITLE "19:cjc024_1468"
    INDEX 01 01:19:74
  TRACK 73 AUDIO
    TITLE "0:"
    INDEX 01 01:23:38
  TRACK 74 AUDIO
    TITLE "18:cjc024_1469"
    INDEX 01 01:24:37
  TRACK 75 AUDIO
    TITLE "0:"
    INDEX 01 01:25:64
  TRACK 76 AUDIO
    TITLE "19:cjc024_1470"
    INDEX 01 01:26:17
  TRACK 77 AUDIO
    TITLE "0:"
    INDEX 01 01:29:33
  TRACK 78 AUDIO
    TITLE "18:cjc024_1471"
    INDEX 01 01:30:34
  TRACK 79 AUDIO
    TITLE "0:"
    INDEX 01 01:31:55
  TRACK 80 AUDIO
    TITLE "19:cjc024_1472"
    INDEX 01 01:32:06
  TRACK 81 AUDIO
    TITLE "0:"
    INDEX 01 01:35:16
  TRACK 82 AUDIO
    TITLE "18:cjc024_1473"
    INDEX 01 01:36:21
  TRACK 83 AUDIO
    TITLE "0:"
    INDEX 01 01:37:38
  TRACK 84 AUDIO
    TITLE "19:cjc024_1474"
    INDEX 01 01:37:60
  TRACK 85 AUDIO
    TITLE "0:"
    INDEX 01 01:40:15
  TRACK 86 AUDIO
    TITLE "18:cjc024_1475"
    INDEX 01 01:41:12
  TRACK 87 AUDIO
    TITLE "0:"
    INDEX 01 01:42:24
  TRACK 88 AUDIO
    TITLE "19:cjc024_1476"
    INDEX 01 01:42:53
  TRACK 89 AUDIO
    TITLE "0:"
    INDEX 01 01:45:08
  TRACK 90 AUDIO
    TITLE "18:cjc024_1477"
    INDEX 01 01:46:08
  TRACK 91 AUDIO
    TITLE "0:"
    INDEX 01 01:47:11
  TRACK 92 AUDIO
    TITLE "19:cjc024_1478"
    INDEX 01 01:47:37
  TRACK 93 AUDIO
    TITLE "0:"
    INDEX 01 01:49:45
  TRACK 94 AUDIO
    TITLE "18:cjc024_1479"
    INDEX 01 01:50:45
  TRACK 95 AUDIO
    TITLE "0:"
    INDEX 01 01:51:68
  TRACK 96 AUDIO
    TITLE "19:cjc024_1480"
    INDEX 01 01:52:20
  TRACK 97 AUDIO
    TITLE "0:"
    INDEX 01 01:54:42
  TRACK 98 AUDIO
    TITLE "18:cjc024_1481"
    INDEX 01 01:55:42
  TRACK 99 AUDIO
    TITLE "0:"
    INDEX 01 01:56:55
  TRACK 100 AUDIO
    TITLE "19:cjc024_1482"
    INDEX 01 01:57:08
  TRACK 101 AUDIO
    TITLE "0:"
    INDEX 01 01:58:58
  TRACK 102 AUDIO
    TITLE "18:cjc024_1483"
    INDEX 01 01:59:57
  TRACK 103 AUDIO
    TITLE "0:"
    INDEX 01 02:01:19
  TRACK 104 AUDIO
    TITLE "19:cjc024_1484"
    INDEX 01 02:01:43
  TRACK 105 AUDIO
    TITLE "0:"
    INDEX 01 02:04:53
  TRACK 106 AUDIO
    TITLE "18:cjc024_1485"
    INDEX 01 02:05:52
  TRACK 107 AUDIO
    TITLE "0:"
    INDEX 01 02:06:46
  TRACK 108 AUDIO
    TITLE "19:cjc024_1486"
    INDEX 01 02:07:02
  TRACK 109 AUDIO
    TITLE "0:"
    INDEX 01 02:09:50
  TRACK 110 AUDIO
    TITLE "18:cjc024_1487"
    INDEX 01 02:10:49
  TRACK 111 AUDIO
    TITLE "0:"
    INDEX 01 02:11:63
  TRACK 112 AUDIO
    TITLE "19:cjc024_1488"
    INDEX 01 02:12:13
  TRACK 113 AUDIO
    TITLE "0:"
    INDEX 01 02:14:51
  TRACK 114 AUDIO
    TITLE "18:cjc024_1489"
    INDEX 01 02:15:51
  TRACK 115 AUDIO
    TITLE "0:"
    INDEX 01 02:17:18
  TRACK 116 AUDIO
    TITLE "19:cjc024_1490"
    INDEX 01 02:17:44
  TRACK 117 AUDIO
    TITLE "0:"
    INDEX 01 02:19:56
  TRACK 118 AUDIO
    TITLE "18:cjc024_1491"
    INDEX 01 02:20:58
  TRACK 119 AUDIO
    TITLE "0:"
    INDEX 01 02:22:13
  TRACK 120 AUDIO
    TITLE "19:cjc024_1492"
    INDEX 01 02:22:41
  TRACK 121 AUDIO
    TITLE "0:"
    INDEX 01 02:25:04
  TRACK 122 AUDIO
    TITLE "18:cjc024_1493"
    INDEX 01 02:26:05
  TRACK 123 AUDIO
    TITLE "0:"
    INDEX 01 02:27:13
  TRACK 124 AUDIO
    TITLE "19:cjc024_1494"
    INDEX 01 02:27:38
  TRACK 125 AUDIO
    TITLE "0:"
    INDEX 01 02:30:17
  TRACK 126 AUDIO
    TITLE "18:cjc024_1495"
    INDEX 01 02:31:20
  TRACK 127 AUDIO
    TITLE "0:"
    INDEX 01 02:32:31
  TRACK 128 AUDIO
    TITLE "19:cjc024_1496"
    INDEX 01 02:32:55
  TRACK 129 AUDIO
    TITLE "0:"
    INDEX 01 02:34:28
  TRACK 130 AUDIO
    TITLE "18:cjc024_1497"
    INDEX 01 02:35:30
  TRACK 131 AUDIO
    TITLE "0:"
    INDEX 01 02:36:51
  TRACK 132 AUDIO
    TITLE "19:cjc024_1498"
    INDEX 01 02:36:74
  TRACK 133 AUDIO
    TITLE "0:"
    INDEX 01 02:38:55
  TRACK 134 AUDIO
    TITLE "18:cjc024_1499"
    INDEX 01 02:39:57
  TRACK 135 AUDIO
    TITLE "0:"
    INDEX 01 02:40:74
  TRACK 136 AUDIO
    TITLE "19:cjc024_1500"
    INDEX 01 02:41:28
  TRACK 137 AUDIO
    TITLE "0:"
    INDEX 01 02:43:15
  TRACK 138 AUDIO
    TITLE "18:cjc024_1501"
    INDEX 01 02:44:19
  TRACK 139 AUDIO
    TITLE "0:"
    INDEX 01 02:45:28
  TRACK 140 AUDIO
    TITLE "19:cjc024_1502"
    INDEX 01 02:45:56
  TRACK 141 AUDIO
    TITLE "0:"
    INDEX 01 02:47:68
  TRACK 142 AUDIO
    TITLE "18:cjc024_1503"
    INDEX 01 02:48:70
  TRACK 143 AUDIO
    TITLE "0:"
    INDEX 01 02:50:02
  TRACK 144 AUDIO
    TITLE "19:cjc024_1504"
    INDEX 01 02:50:25
  TRACK 145 AUDIO
    TITLE "0:"
    INDEX 01 02:52:11
  TRACK 146 AUDIO
    TITLE "18:cjc024_1505"
    INDEX 01 02:53:08
  TRACK 147 AUDIO
    TITLE "0:"
    INDEX 01 02:54:06
  TRACK 148 AUDIO
    TITLE "19:cjc024_1506"
    INDEX 01 02:54:31
  TRACK 149 AUDIO
    TITLE "0:"
    INDEX 01 02:57:08
  TRACK 150 AUDIO
    TITLE "18:cjc024_1507"
    INDEX 01 02:58:05
  TRACK 151 AUDIO
    TITLE "0:"
    INDEX 01 02:59:16
  TRACK 152 AUDIO
    TITLE "19:cjc024_1508"
    INDEX 01 02:59:42
  TRACK 153 AUDIO
    TITLE "0:"
    INDEX 01 03:01:53
  TRACK 154 AUDIO
    TITLE "18:cjc024_1509"
    INDEX 01 03:02:50
  TRACK 155 AUDIO
    TITLE "0:"
    INDEX 01 03:03:71
  TRACK 156 AUDIO
    TITLE "19:cjc024_1510"
    INDEX 01 03:04:24
  TRACK 157 AUDIO
    TITLE "0:"
    INDEX 01 03:06:09
  TRACK 158 AUDIO
    TITLE "18:cjc024_1511"
    INDEX 01 03:07:10
  TRACK 159 AUDIO
    TITLE "0:"
    INDEX 01 03:08:12
  TRACK 160 AUDIO
    TITLE "19:cjc024_1512"
    INDEX 01 03:08:35
  TRACK 161 AUDIO
    TITLE "0:"
    INDEX 01 03:10:54
  TRACK 162 AUDIO
    TITLE "18:cjc024_1513"
    INDEX 01 03:11:55
  TRACK 163 AUDIO
    TITLE "0:"
    INDEX 01 03:12:66
  TRACK 164 AUDIO
    TITLE "19:cjc024_1514"
    INDEX 01 03:13:17
  TRACK 165 AUDIO
    TITLE "0:"
    INDEX 01 03:15:41
  TRACK 166 AUDIO
    TITLE "18:cjc024_1515"
    INDEX 01 03:16:40
  TRACK 167 AUDIO
    TITLE "0:"
    INDEX 01 03:17:46
  TRACK 168 AUDIO
    TITLE "19:cjc024_1516"
    INDEX 01 03:17:69
  TRACK 169 AUDIO
    TITLE "0:"
    INDEX 01 03:19:52
  TRACK 170 AUDIO
    TITLE "18:cjc024_1517"
    INDEX 01 03:20:50
  TRACK 171 AUDIO
    TITLE "0:"
    INDEX 01 03:21:57
  TRACK 172 AUDIO
    TITLE "19:cjc024_1518"
    INDEX 01 03:22:14
  TRACK 173 AUDIO
    TITLE "0:"
    INDEX 01 03:24:67
  TRACK 174 AUDIO
    TITLE "18:cjc024_1519"
    INDEX 01 03:25:69
  TRACK 175 AUDIO
    TITLE "0:"
    INDEX 01 03:26:72
  TRACK 176 AUDIO
    TITLE "19:cjc024_1520"
    INDEX 01 03:27:25
  TRACK 177 AUDIO
    TITLE "0:"
    INDEX 01 03:29:37
  TRACK 178 AUDIO
    TITLE "18:cjc024_1521"
    INDEX 01 03:30:46
  TRACK 179 AUDIO
    TITLE "0:"
    INDEX 01 03:31:48
  TRACK 180 AUDIO
    TITLE "19:cjc024_1522"
    INDEX 01 03:32:04
  TRACK 181 AUDIO
    TITLE "0:"
    INDEX 01 03:34:25
  TRACK 182 AUDIO
    TITLE "18:cjc024_1523"
    INDEX 01 03:35:22
  TRACK 183 AUDIO
    TITLE "0:"
    INDEX 01 03:36:41
  TRACK 184 AUDIO
    TITLE "19:cjc024_1524"
    INDEX 01 03:36:69
  TRACK 185 AUDIO
    TITLE "0:"
    INDEX 01 03:38:48
  TRACK 186 AUDIO
    TITLE "18:cjc024_1525"
    INDEX 01 03:39:49
  TRACK 187 AUDIO
    TITLE "0:"
    INDEX 01 03:40:60
  TRACK 188 AUDIO
    TITLE "19:cjc024_1526"
    INDEX 01 03:41:15
  TRACK 189 AUDIO
    TITLE "0:"
    INDEX 01 03:44:45
  TRACK 190 AUDIO
    TITLE "18:cjc024_1527"
    INDEX 01 03:45:42
  TRACK 191 AUDIO
    TITLE "0:"
    INDEX 01 03:46:67
  TRACK 192 AUDIO
    TITLE "19:cjc024_1528"
    INDEX 01 03:47:17
  TRACK 193 AUDIO
    TITLE "0:"
    INDEX 01 03:50:10
  TRACK 194 AUDIO
    TITLE "18:cjc024_1529"
    INDEX 01 03:51:15
  TRACK 195 AUDIO
    TITLE "0:"
    INDEX 01 03:52:30
  TRACK 196 AUDIO
    TITLE "19:cjc024_1530"
    INDEX 01 03:52:56
  TRACK 197 AUDIO
    TITLE "0:"
    INDEX 01 03:54:57
  TRACK 198 AUDIO
    TITLE "18:cjc024_1531"
    INDEX 01 03:55:56
  TRACK 199 AUDIO
    TITLE "0:"
    INDEX 01 03:56:60
  TRACK 200 AUDIO
    TITLE "19:cjc024_1532"
    INDEX 01 03:57:06
  TRACK 201 AUDIO
    TITLE "0:"
    INDEX 01 03:59:72
  TRACK 202 AUDIO
    TITLE "18:cjc024_1533"
    INDEX 01 04:01:04
  TRACK 203 AUDIO
    TITLE "0:"
    INDEX 01 04:02:17
  TRACK 204 AUDIO
    TITLE "19:cjc024_1534"
    INDEX 01 04:02:41
  TRACK 205 AUDIO
    TITLE "0:"
    INDEX 01 04:04:30
  TRACK 206 AUDIO
    TITLE "18:cjc024_1535"
    INDEX 01 04:05:33
  TRACK 207 AUDIO
    TITLE "0:"
    INDEX 01 04:06:54
  TRACK 208 AUDIO
    TITLE "19:cjc024_1536"
    INDEX 01 04:07:03
  TRACK 209 AUDIO
    TITLE "0:"
    INDEX 01 04:09:15
  TRACK 210 AUDIO
    TITLE "18:cjc024_1537"
    INDEX 01 04:10:17
  TRACK 211 AUDIO
    TITLE "0:"
    INDEX 01 04:11:24
  TRACK 212 AUDIO
    TITLE "19:cjc024_1538"
    INDEX 01 04:11:51
  TRACK 213 AUDIO
    TITLE "0:"
    INDEX 01 04:15:02
  TRACK 214 AUDIO
    TITLE "18:cjc024_1539"
    INDEX 01 04:16:03
  TRACK 215 AUDIO
    TITLE "0:"
    INDEX 01 04:17:17
  TRACK 216 AUDIO
    TITLE "19:cjc024_1540"
    INDEX 01 04:17:40
  TRACK 217 AUDIO
    TITLE "0:"
    INDEX 01 04:19:72
  TRACK 218 AUDIO
    TITLE "18:cjc024_1541"
    INDEX 01 04:20:74
  TRACK 219 AUDIO
    TITLE "0:"
    INDEX 01 04:22:08
  TRACK 220 AUDIO
    TITLE "19:cjc024_1542"
    INDEX 01 04:22:35
  TRACK 221 AUDIO
    TITLE "0:"
    INDEX 01 04:24:44
  TRACK 222 AUDIO
    TITLE "18:cjc024_1543"
    INDEX 01 04:25:53
  TRACK 223 AUDIO
    TITLE "0:"
    INDEX 01 04:26:66
  TRACK 224 AUDIO
    TITLE "19:cjc024_1544"
    INDEX 01 04:27:17
  TRACK 225 AUDIO
    TITLE "0:"
    INDEX 01 04:29:08
  TRACK 226 AUDIO
    TITLE "18:cjc024_1545"
    INDEX 01 04:30:07
  TRACK 227 AUDIO
    TITLE "0:"
    INDEX 01 04:31:15
  TRACK 228 AUDIO
    TITLE "19:cjc024_1546"
    INDEX 01 04:31:40
  TRACK 229 AUDIO
    TITLE "0:"
    INDEX 01 04:34:46
  TRACK 230 AUDIO
    TITLE "18:cjc024_1547"
    INDEX 01 04:35:46
  TRACK 231 AUDIO
    TITLE "0:"
    INDEX 01 04:36:67
  TRACK 232 AUDIO
    TITLE "19:cjc024_1548"
    INDEX 01 04:37:17
  TRACK 233 AUDIO
    TITLE "0:"
    INDEX 01 04:39:48
  TRACK 234 AUDIO
    TITLE "18:cjc024_1549"
    INDEX 01 04:40:45
  TRACK 235 AUDIO
    TITLE "0:"
    INDEX 01 04:41:58
  TRACK 236 AUDIO
    TITLE "19:cjc024_1550"
    INDEX 01 04:42:13
  TRACK 237 AUDIO
    TITLE "0:"
    INDEX 01 04:43:63
  TRACK 238 AUDIO
    TITLE "18:cjc024_1551"
    INDEX 01 04:44:68
  TRACK 239 AUDIO
    TITLE "0:"
    INDEX 01 04:46:03
  TRACK 240 AUDIO
    TITLE "19:cjc024_1552"
    INDEX 01 04:46:26
  TRACK 241 AUDIO
    TITLE "0:"
    INDEX 01 04:48:70
  TRACK 242 AUDIO
    TITLE "18:cjc024_1553"
    INDEX 01 04:49:73
  TRACK 243 AUDIO
    TITLE "0:"
    INDEX 01 04:51:27
  TRACK 244 AUDIO
    TITLE "19:cjc024_1554"
    INDEX 01 04:51:57
  TRACK 245 AUDIO
    TITLE "0:"
    INDEX 01 04:53:59
  TRACK 246 AUDIO
    TITLE "18:cjc024_1555"
    INDEX 01 04:54:71
  TRACK 247 AUDIO
    TITLE "0:"
    INDEX 01 04:56:17
  TRACK 248 AUDIO
    TITLE "19:cjc024_1556"
    INDEX 01 04:56:36
  TRACK 249 AUDIO
    TITLE "0:"
    INDEX 01 04:58:53
  TRACK 250 AUDIO
    TITLE "18:cjc024_1557"
    INDEX 01 04:59:52
  TRACK 251 AUDIO
    TITLE "0:"
    INDEX 01 05:00:50
  TRACK 252 AUDIO
    TITLE "19:cjc024_1558"
    INDEX 01 05:00:71
  TRACK 253 AUDIO
    TITLE "0:"
    INDEX 01 05:02:60
  TRACK 254 AUDIO
    TITLE "18:cjc024_1559"
    INDEX 01 05:03:74
  TRACK 255 AUDIO
    TITLE "0:"
    INDEX 01 05:05:06
  TRACK 256 AUDIO
    TITLE "19:cjc024_1560"
    INDEX 01 05:05:37
  TRACK 257 AUDIO
    TITLE "0:"
    INDEX 01 05:08:04
  TRACK 258 AUDIO
    TITLE "18:cjc024_1561"
    INDEX 01 05:09:08
  TRACK 259 AUDIO
    TITLE "0:"
    INDEX 01 05:10:11
  TRACK 260 AUDIO
    TITLE "19:cjc024_1562"
    INDEX 01 05:10:38
  TRACK 261 AUDIO
    TITLE "0:"
    INDEX 01 05:11:69
  TRACK 262 AUDIO
    TITLE "18:cjc024_1563"
    INDEX 01 05:12:69
  TRACK 263 AUDIO
    TITLE "0:"
    INDEX 01 05:13:74
  TRACK 264 AUDIO
    TITLE "19:cjc024_1564"
    INDEX 01 05:14:36
  TRACK 265 AUDIO
    TITLE "0:"
    INDEX 01 05:17:17
  TRACK 266 AUDIO
    TITLE "18:cjc024_1565"
    INDEX 01 05:18:28
  TRACK 267 AUDIO
    TITLE "0:"
    INDEX 01 05:19:41
  TRACK 268 AUDIO
    TITLE "19:cjc024_1566"
    INDEX 01 05:19:67
  TRACK 269 AUDIO
    TITLE "0:"
    INDEX 01 05:21:62
  TRACK 270 AUDIO
    TITLE "18:cjc024_1567"
    INDEX 01 05:22:59
  TRACK 271 AUDIO
    TITLE "0:"
    INDEX 01 05:23:61
  TRACK 272 AUDIO
    TITLE "19:cjc024_1568"
    INDEX 01 05:24:13
  TRACK 273 AUDIO
    TITLE "0:"
    INDEX 01 05:26:37
  TRACK 274 AUDIO
    TITLE "18:cjc024_1569"
    INDEX 01 05:27:37
  TRACK 275 AUDIO
    TITLE "0:"
    INDEX 01 05:28:64
  TRACK 276 AUDIO
    TITLE "19:cjc024_1570"
    INDEX 01 05:29:14
  TRACK 277 AUDIO
    TITLE "0:"
    INDEX 01 05:31:42
  TRACK 278 AUDIO
    TITLE "18:cjc024_1571"
    INDEX 01 05:32:46
  TRACK 279 AUDIO
    TITLE "0:"
    INDEX 01 05:33:65
  TRACK 280 AUDIO
    TITLE "19:cjc024_1572"
    INDEX 01 05:34:13
  TRACK 281 AUDIO
    TITLE "0:"
    INDEX 01 05:36:44
  TRACK 282 AUDIO
    TITLE "18:cjc024_1573"
    INDEX 01 05:37:41
  TRACK 283 AUDIO
    TITLE "0:"
    INDEX 01 05:38:41
  TRACK 284 AUDIO
    TITLE "19:cjc024_1574"
    INDEX 01 05:38:62
  TRACK 285 AUDIO
    TITLE "0:"
    INDEX 01 05:40:55
  TRACK 286 AUDIO
    TITLE "18:cjc024_1575"
    INDEX 01 05:41:57
  TRACK 287 AUDIO
    TITLE "0:"
    INDEX 01 05:42:58
  TRACK 288 AUDIO
    TITLE "19:cjc024_1576"
    INDEX 01 05:43:08
  TRACK 289 AUDIO
    TITLE "0:"
    INDEX 01 05:45:29
  TRACK 290 AUDIO
    TITLE "18:cjc024_1577"
    INDEX 01 05:46:32
  TRACK 291 AUDIO
    TITLE "0:"
    INDEX 01 05:47:39
  TRACK 292 AUDIO
    TITLE "19:cjc024_1578"
    INDEX 01 05:47:69
  TRACK 293 AUDIO
    TITLE "0:"
    INDEX 01 05:49:38
  TRACK 294 AUDIO
    TITLE "18:cjc024_1579"
    INDEX 01 05:50:38
  TRACK 295 AUDIO
    TITLE "0:"
    INDEX 01 05:51:49
  TRACK 296 AUDIO
    TITLE "19:cjc024_1580"
    INDEX 01 05:52:09
  TRACK 297 AUDIO
    TITLE "0:"
    INDEX 01 05:54:42
  TRACK 298 AUDIO
    TITLE "18:cjc024_1581"
    INDEX 01 05:55:45
  TRACK 299 AUDIO
    TITLE "0:"
    INDEX 01 05:56:66
  TRACK 300 AUDIO
    TITLE "19:cjc024_1582"
    INDEX 01 05:57:20
  TRACK 301 AUDIO
    TITLE "0:"
    INDEX 01 05:59:62
  TRACK 302 AUDIO
    TITLE "18:cjc024_1583"
    INDEX 01 06:00:64
  TRACK 303 AUDIO
    TITLE "0:"
    INDEX 01 06:01:71
  TRACK 304 AUDIO
    TITLE "19:cjc024_1584"
    INDEX 01 06:02:19
  TRACK 305 AUDIO
    TITLE "0:"
    INDEX 01 06:04:18
  TRACK 306 AUDIO
    TITLE "18:cjc024_1585"
    INDEX 01 06:05:18
  TRACK 307 AUDIO
    TITLE "0:"
    INDEX 01 06:06:31
  TRACK 308 AUDIO
    TITLE "19:cjc024_1586"
    INDEX 01 06:06:58
  TRACK 309 AUDIO
    TITLE "0:"
    INDEX 01 06:09:31
  TRACK 310 AUDIO
    TITLE "18:cjc024_1587"
    INDEX 01 06:10:33
  TRACK 311 AUDIO
    TITLE "0:"
    INDEX 01 06:11:42
  TRACK 312 AUDIO
    TITLE "19:cjc024_1588"
    INDEX 01 06:11:67
  TRACK 313 AUDIO
    TITLE "0:"
    INDEX 01 06:14:38
  TRACK 314 AUDIO
    TITLE "18:cjc024_1589"
    INDEX 01 06:15:42
  TRACK 315 AUDIO
    TITLE "0:"
    INDEX 01 06:16:55
  TRACK 316 AUDIO
    TITLE "19:cjc024_1590"
    INDEX 01 06:17:05
  TRACK 317 AUDIO
    TITLE "0:"
    INDEX 01 06:18:48
  TRACK 318 AUDIO
    TITLE "18:cjc024_1591"
    INDEX 01 06:19:51
  TRACK 319 AUDIO
    TITLE "0:"
    INDEX 01 06:21:03
  TRACK 320 AUDIO
    TITLE "19:cjc024_1592"
    INDEX 01 06:21:31
  TRACK 321 AUDIO
    TITLE "0:"
    INDEX 01 06:24:41
  TRACK 322 AUDIO
    TITLE "18:cjc024_1593"
    INDEX 01 06:25:38
  TRACK 323 AUDIO
    TITLE "0:"
    INDEX 01 06:26:40
  TRACK 324 AUDIO
    TITLE "19:cjc024_1594"
    INDEX 01 06:26:71
  TRACK 325 AUDIO
    TITLE "0:"
    INDEX 01 06:28:50
  TRACK 326 AUDIO
    TITLE "18:cjc024_1595"
    INDEX 01 06:29:52
  TRACK 327 AUDIO
    TITLE "0:"
    INDEX 01 06:30:53
  TRACK 328 AUDIO
    TITLE "19:cjc024_1596"
    INDEX 01 06:31:02
  TRACK 329 AUDIO
    TITLE "0:"
    INDEX 01 06:32:72
  TRACK 330 AUDIO
    TITLE "18:cjc024_1597"
    INDEX 01 06:34:00
  TRACK 331 AUDIO
    TITLE "0:"
    INDEX 01 06:35:07
  TRACK 332 AUDIO
    TITLE "19:cjc024_1598"
    INDEX 01 06:35:40
  TRACK 333 AUDIO
    TITLE "0:"
    INDEX 01 06:37:26
  TRACK 334 AUDIO
    TITLE "18:cjc024_1599"
    INDEX 01 06:38:31
  TRACK 335 AUDIO
    TITLE "0:"
    INDEX 01 06:39:50
  TRACK 336 AUDIO
    TITLE "19:cjc024_1600"
    INDEX 01 06:40:06
  TRACK 337 AUDIO
    TITLE "0:"
    INDEX 01 06:42:23
  TRACK 338 AUDIO
    TITLE "18:cjc024_1601"
    INDEX 01 06:43:22
  TRACK 339 AUDIO
    TITLE "0:"
    INDEX 01 06:44:51
  TRACK 340 AUDIO
    TITLE "19:cjc024_1602"
    INDEX 01 06:45:09
  TRACK 341 AUDIO
    TITLE "0:"
    INDEX 01 06:47:08
  TRACK 342 AUDIO
    TITLE "18:cjc024_1603"
    INDEX 01 06:48:20
  TRACK 343 AUDIO
    TITLE "0:"
    INDEX 01 06:49:17
  TRACK 344 AUDIO
    TITLE "19:cjc024_1604"
    INDEX 01 06:49:48
  TRACK 345 AUDIO
    TITLE "0:"
    INDEX 01 06:51:73
  TRACK 346 AUDIO
    TITLE "18:cjc024_1605"
    INDEX 01 06:52:72
  TRACK 347 AUDIO
    TITLE "0:"
    INDEX 01 06:53:72
  TRACK 348 AUDIO
    TITLE "19:cjc024_1606"
    INDEX 01 06:54:26
  TRACK 349 AUDIO
    TITLE "0:"
    INDEX 01 06:56:27
  TRACK 350 AUDIO
    TITLE "18:cjc024_1607"
    INDEX 01 06:57:28
  TRACK 351 AUDIO
    TITLE "0:"
    INDEX 01 06:58:51
  TRACK 352 AUDIO
    TITLE "19:cjc024_1608"
    INDEX 01 06:59:00
  TRACK 353 AUDIO
    TITLE "0:"
    INDEX 01 07:00:64
  TRACK 354 AUDIO
    TITLE "18:cjc024_1609"
    INDEX 01 07:01:67
  TRACK 355 AUDIO
    TITLE "0:"
    INDEX 01 07:03:15
  TRACK 356 AUDIO
    TITLE "19:cjc024_1610"
    INDEX 01 07:03:43
  TRACK 357 AUDIO
    TITLE "0:"
    INDEX 01 07:05:36
  TRACK 358 AUDIO
    TITLE "18:cjc024_1611"
    INDEX 01 07:06:43
  TRACK 359 AUDIO
    TITLE "0:"
    INDEX 01 07:07:66
  TRACK 360 AUDIO
    TITLE "19:cjc024_1612"
    INDEX 01 07:08:18
  TRACK 361 AUDIO
    TITLE "0:"
    INDEX 01 07:11:11
  TRACK 362 AUDIO
    TITLE "18:cjc024_1613"
    INDEX 01 07:12:10
  TRACK 363 AUDIO
    TITLE "0:"
    INDEX 01 07:13:35
  TRACK 364 AUDIO
    TITLE "19:cjc024_1614"
    INDEX 01 07:13:63
  TRACK 365 AUDIO
    TITLE "0:"
    INDEX 01 07:15:48
  TRACK 366 AUDIO
    TITLE "18:cjc024_1615"
    INDEX 01 07:16:47
  TRACK 367 AUDIO
    TITLE "0:"
    INDEX 01 07:17:72
  TRACK 368 AUDIO
    TITLE "19:cjc024_1616"
    INDEX 01 07:18:25
  TRACK 369 AUDIO
    TITLE "0:"
    INDEX 01 07:20:27
  TRACK 370 AUDIO
    TITLE "18:cjc024_1617"
    INDEX 01 07:21:29
  TRACK 371 AUDIO
    TITLE "0:"
    INDEX 01 07:22:32
  TRACK 372 AUDIO
    TITLE "19:cjc024_1618"
    INDEX 01 07:22:60
  TRACK 373 AUDIO
    TITLE "0:"
    INDEX 01 07:24:45
  TRACK 374 AUDIO
    TITLE "18:cjc024_1619"
    INDEX 01 07:25:46
  TRACK 375 AUDIO
    TITLE "0:"
    INDEX 01 07:27:12
  TRACK 376 AUDIO
    TITLE "19:cjc024_1620"
    INDEX 01 07:27:35
  TRACK 377 AUDIO
    TITLE "0:"
    INDEX 01 07:30:26
  TRACK 378 AUDIO
    TITLE "18:cjc024_1621"
    INDEX 01 07:31:31
  TRACK 379 AUDIO
    TITLE "0:"
    INDEX 01 07:32:46
  TRACK 380 AUDIO
    TITLE "19:cjc024_1622"
    INDEX 01 07:32:74
  TRACK 381 AUDIO
    TITLE "0:"
    INDEX 01 07:35:66
  TRACK 382 AUDIO
    TITLE "18:cjc024_1623"
    INDEX 01 07:36:68
  TRACK 383 AUDIO
    TITLE "0:"
    INDEX 01 07:38:21
  TRACK 384 AUDIO
    TITLE "19:cjc024_1624"
    INDEX 01 07:38:47
  TRACK 385 AUDIO
    TITLE "0:"
    INDEX 01 07:40:60
  TRACK 386 AUDIO
    TITLE "18:cjc024_1625"
    INDEX 01 07:41:65
  TRACK 387 AUDIO
    TITLE "0:"
    INDEX 01 07:42:70
  TRACK 388 AUDIO
    TITLE "19:cjc024_1626"
    INDEX 01 07:43:23
  TRACK 389 AUDIO
    TITLE "0:"
    INDEX 01 07:46:11
  TRACK 390 AUDIO
    TITLE "18:cjc024_1627"
    INDEX 01 07:47:13
  TRACK 391 AUDIO
    TITLE "0:"
    INDEX 01 07:48:18
  TRACK 392 AUDIO
    TITLE "19:cjc024_1628"
    INDEX 01 07:48:39
  TRACK 393 AUDIO
    TITLE "0:"
    INDEX 01 07:49:70
  TRACK 394 AUDIO
    TITLE "18:cjc024_1629"
    INDEX 01 07:50:74
  TRACK 395 AUDIO
    TITLE "0:"
    INDEX 01 07:52:27
  TRACK 396 AUDIO
    TITLE "19:cjc024_1630"
    INDEX 01 07:52:53
  TRACK 397 AUDIO
    TITLE "0:"
    INDEX 01 07:55:55
  TRACK 398 AUDIO
    TITLE "18:cjc024_1631"
    INDEX 01 07:56:57
  TRACK 399 AUDIO
    TITLE "0:"
    INDEX 01 07:57:70
  TRACK 400 AUDIO
    TITLE "19:cjc024_1632"
    INDEX 01 07:58:18
  TRACK 401 AUDIO
    TITLE "0:"
    INDEX 01 08:00:00
